<?xml version="1.0" standalone="no"?>
<!DOCTYPE svg PUBLIC "-//W3C//DTD SVG 20010904//EN"
 "http://www.w3.org/TR/2001/REC-SVG-20010904/DTD/svg10.dtd">
<svg version="1.0" xmlns="http://www.w3.org/2000/svg"
 width="300.000000pt" height="311.000000pt" viewBox="0 0 300.000000 311.000000"
 preserveAspectRatio="xMidYMid meet">

<g transform="translate(0.000000,311.000000) scale(0.100000,-0.100000)"
fill="#000000" stroke="none">
<path d="M2939 3106 c-6 -6 -229 -59 -409 -96 -82 -17 -135 -22 -245 -21 -77
1 -144 6 -149 11 -13 13 -273 13 -278 1 -1 -5 -70 -11 -153 -12 -140 -2 -162
0 -325 35 -264 56 -350 73 -350 70 0 -2 45 -93 100 -203 76 -152 103 -199 115
-195 8 4 15 4 15 1 0 -3 -18 -54 -41 -114 -23 -59 -64 -175 -93 -256 -45 -127
-58 -154 -94 -189 l-41 -42 60 -28 c33 -15 64 -28 70 -28 29 0 -15 -43 -101
-100 -25 -17 -40 -30 -35 -30 6 0 30 14 54 30 24 17 50 30 58 30 16 0 143 -50
217 -86 33 -16 43 -24 29 -24 -12 0 -24 -4 -28 -10 -3 -5 -13 -6 -22 -3 -9 4
-14 2 -10 -3 3 -6 -27 -25 -66 -44 -40 -19 -130 -62 -202 -95 -433 -206 -792
-374 -907 -425 l-93 -42 3 -221 c3 -184 6 -226 19 -247 15 -22 138 -180 441
-565 l94 -120 107 -22 c164 -33 201 -37 201 -21 0 13 220 779 226 787 2 2 29
-3 61 -12 277 -74 399 -107 404 -107 4 0 29 -18 56 -40 l50 -39 24 59 c13 33
27 60 31 60 7 0 26 -60 57 -177 14 -52 25 -69 64 -103 42 -37 51 -41 49 -19
-7 48 33 148 166 424 82 171 175 363 206 428 31 64 81 169 111 231 30 63 55
117 55 120 0 3 -14 3 -31 -1 -30 -6 -28 -2 62 115 52 66 99 123 104 125 6 3
102 48 214 101 112 53 206 97 208 100 2 2 -19 27 -47 57 -28 30 -55 69 -60 89
-5 19 -38 129 -74 245 l-64 210 100 198 c54 109 98 203 96 209 -2 5 -6 7 -9 4z
m-1533 -1204 c7 -4 19 -24 27 -44 20 -49 182 -245 271 -330 79 -76 79 -76 -49
-53 -44 8 -95 15 -112 15 -18 0 -33 2 -33 4 0 8 -120 398 -125 407 -7 11 5 12
21 1z m769 -190 c66 -68 121 -127 123 -131 4 -13 -239 -262 -249 -255 -5 3 -8
0 -7 -8 2 -7 -4 -12 -12 -10 -8 2 -12 0 -8 -3 8 -9 -9 -45 -21 -45 -5 0 -79
71 -164 158 l-156 157 161 162 161 161 26 -31 c14 -18 80 -87 146 -155z"/>
<path d="M2259 1563 c-13 -16 -12 -17 4 -4 9 7 17 15 17 17 0 8 -8 3 -21 -13z"/>
<path d="M2004 1430 c0 -58 1 -81 3 -52 2 28 2 76 0 105 -2 28 -3 5 -3 -53z"/>
<path d="M2002 1300 c0 -14 2 -19 5 -12 2 6 2 18 0 25 -3 6 -5 1 -5 -13z"/>
<path d="M910 1859 c-22 -18 -22 -19 -3 -10 12 6 25 16 28 21 9 15 3 12 -25
-11z"/>
<path d="M1290 1865 c7 -8 17 -12 22 -9 6 4 5 10 -3 15 -22 14 -33 10 -19 -6z"/>
<path d="M825 1800 c-3 -6 1 -7 9 -4 18 7 21 14 7 14 -6 0 -13 -4 -16 -10z"/>
</g>
</svg>
